PathFileType	4	(X/Y/Z)	T1_P2_Vision_NoMovement_3_0-731.trc
DataRate	CameraRate	NumFrames	NumMarkers	Units	OrigDataRate	OrigDataStartFrame	OrigNumFrames
60	60	4	27	m	60	548	731
Frame#	Time	RHip			RKnee			RAnkle			RBigToe			RSmallToe			RHeel			LHip			LKnee			LAnkle			LBigToe			LSmallToe			LHeel			Neck			Head			Nose			RShoulder			RElbow			RWrist			RThumb			RIndex			RPinky			LShoulder			LElbow			LWrist			LThumb			LIndex			LPinky		
		X1	Y1	Z1	X2	Y2	Z2	X3	Y3	Z3	X4	Y4	Z4	X5	Y5	Z5	X6	Y6	Z6	X7	Y7	Z7	X8	Y8	Z8	X9	Y9	Z9	X10	Y10	Z10	X11	Y11	Z11	X12	Y12	Z12	X13	Y13	Z13	X14	Y14	Z14	X15	Y15	Z15	X16	Y16	Z16	X17	Y17	Z17	X18	Y18	Z18	X19	Y19	Z19	X20	Y20	Z20	X21	Y21	Z21	X22	Y22	Z22	X23	Y23	Z23	X24	Y24	Z24	X25	Y25	Z25	X26	Y26	Z26	X27	Y27	Z27
549	9.15	444.1789063049655	3748.893904664171	654.9527927276878	829.7213601021847	3803.3484930911973	648.2732144754209	1210.9703681994552	3817.0909175728484	646.5740121957936	1285.5313500647178	3666.996619452924	647.6787363446151	1287.7273931475925	3721.2681306419377	600.5453032071564	1253.3915276275354	3864.1235816488047	696.1315625617037	450.3870987278374	3631.591709850818	852.0457987222397	826.5144691373927	3659.0659320817585	880.138573116807	1218.765051304829	3678.765327966507	893.3802745752113	1284.8227044905452	3534.651496042694	799.189290207166	1276.7941636427386	3546.630481424477	875.8122034508267	1268.996283682311	3763.908899363572	919.7979469239618	-126.48414839539979	3653.3097637868086	755.6173752273954	-394.2365414893363	3608.493587137378	730.2435659813841	-247.08118796552537	3563.908508033241	717.4389574194284	-45.355883682158016	3742.2356845069053	630.5689187890572	201.73579674166604	3753.2058047766277	555.1479401973861	343.15471549476774	3546.3818907608343	619.5285651601649	416.5649681271531	3545.165309825767	705.8126008972498	430.5578215177906	3524.756115864401	719.5619244442646	455.0202425952189	3489.155120464058	680.8212464223893	-38.64256551209197	3593.8973162390266	911.0374467585449	212.5387197926247	3509.695228659169	913.9927982027326	363.66288554884466	3491.6742711512434	731.7590099698133	410.65661924352275	3519.146147630809	628.1274875993197	440.52118883411214	3531.9159973999676	627.9679082175182	464.36493404140725	3475.822897163042	673.8136596627228
550	9.166666666666666	445.0737280175209	3753.4199074758903	658.6594602603082	831.3988839969854	3810.8645840018366	653.2634116975863	1210.5083542376824	3817.8476608877477	647.1511891633344	1285.1183661369644	3664.515865984349	647.2862845319245	1284.9946185919591	3718.4640767818005	599.8567651245448	1253.8352100081615	3865.4547796645825	695.6289463380173	450.4914073973581	3631.679330046769	852.1277795512085	826.9641512104007	3659.8514614988467	882.898645828973	1220.488508712487	3680.8769262747464	895.5219845460297	1284.956394951942	3534.7700030250894	799.3793595226963	1276.1248079597174	3544.957529207491	875.3045202644737	1268.7926448785508	3760.2299720307533	917.016544118995	-126.5355174231497	3653.036539220647	756.0373353988035	-394.31615016142837	3608.567205504577	730.357937023706	-247.62197408927995	3567.420392791136	721.9464117360409	-45.177240998632186	3746.090443535037	633.6314774769799	201.14991958103673	3745.595380665307	553.4848341555909	343.7311651553698	3546.5768745474356	619.7288467274678	417.36747364060244	3546.683164053539	707.664725212648	432.61917666945357	3525.5503136218013	719.919202870948	456.9762604192144	3495.6854190888957	686.5988589444191	-38.19209743085043	3593.552295172647	910.7233120647679	213.37682617803407	3508.4286164840682	913.8535353285163	363.69042886753743	3491.047915183298	732.4689710604625	410.05831134451114	3513.457202084021	626.49369625231	440.03992299676423	3527.4651326700423	626.5533524011008	466.3621037850922	3480.368107286705	677.9292072816602
551	9.183333333333334	445.51958414864697	3755.243701006781	660.1601762920964	832.1545886967184	3813.4709352756304	654.3789585752503	1210.1289691782592	3818.1305692546716	647.9575406246339	1284.1185574072135	3663.927616577033	647.31695876733	1283.561566537118	3718.2016603487855	600.0007544499348	1253.825195885008	3867.6454786573045	696.828064565587	450.59065409321	3631.697675673061	852.1893552012278	826.6361632891053	3657.4914691816944	883.1063227901997	1222.7545724671068	3684.3634923656873	898.797562424214	1285.4472412605323	3534.9095799899487	799.5810427665933	1275.5234624695408	3541.7970471022745	874.435010413845	1269.403139299308	3757.537849674726	915.259626993142	-126.57567243263125	3652.370891427799	757.034572545632	-394.39793392251295	3608.4147098441586	730.8541788550402	-248.66515377521029	3571.91515095302	727.7311104390951	-45.1353214003411	3746.4038480085746	633.7461116483114	200.75232130864327	3740.0271322162566	552.2977023019354	344.2043813800164	3548.0617856331382	621.1284684592009	415.57346065128473	3540.863172928027	702.6863574235726	434.81322820571256	3526.4314971013887	720.4461888243545	458.54912237133254	3499.2366166972397	690.0893699483532	-37.03098725632601	3592.5067727178475	909.9375811164689	214.65748801306802	3507.6987207932248	913.7618198746242	363.5714219746252	3486.650903461067	731.1879862140439	408.9321876861563	3504.51851414618	624.2557680815714	440.4965510989835	3523.708453155813	625.5499103005518	468.07404015093596	3483.9611514645558	682.3055553046581
552	9.2	445.4675054374051	3755.191888561967	660.1801695376774	831.2737889134954	3810.125258059559	651.2333238125103	1209.9783414839505	3817.917859136903	648.8214465733249	1283.8354920752843	3666.5514721753816	648.0200740126221	1285.4801011191205	3724.263141987797	603.4208031262162	1253.7774431898915	3869.123091433786	698.3191737240488	450.64509432693137	3631.664655444606	852.2239058656677	825.8667553716397	3653.5691090463997	882.0135975543537	1223.737019293617	3684.904662351536	899.3417431675505	1286.3525606511562	3535.177916658132	799.8586582454523	1276.1673689630832	3540.7790772234475	874.4745417131189	1269.8392265778334	3754.6198867158873	913.176284616824	-126.60054901855304	3651.487463439099	758.3332350811495	-394.2811562103732	3607.695905768504	731.7798527256755	-249.1836071834079	3575.1895917384795	732.561433887866	-45.17298353165088	3744.4483589699785	631.9861623253161	200.69293209035138	3738.106906222912	551.9332268340892	344.89378790479617	3551.7596804037057	624.490083717174	410.4643427393407	3526.1812027489223	690.1681742030931	435.85666916713467	3527.1156047286927	721.2976764601822	459.2325361864935	3499.970868393947	691.8203262258805	-35.46134706001299	3591.3904199292547	909.238736805094	215.80714498684574	3507.5540187310103	913.6872549746349	364.1014826954267	3482.031083019119	729.7270788121398	407.70818783132677	3495.384450302086	622.5312019111752	442.36984168807965	3522.4564131228835	626.1916699966444	469.23821961085747	3486.807181503955	686.2016464473976
